<svg width="684" height="240" viewBox="0 0 684 240" fill="none" xmlns="http://www.w3.org/2000/svg">
<path d="M680.162 37C682.023 37 683.534 38.7819 683.54 40.9844L684 212.025C684.003 213.306 683.488 214.51 682.614 215.266L654.88 239.231C654.302 239.731 653.604 240 652.889 240H51.3203C50.6043 240 49.9064 239.731 49.3281 239.231L1.38574 197.805C0.514847 197.052 0 195.852 0 194.576V40.9971C0 38.7896 1.51242 37 3.37793 37H680.162ZM159.549 0C160.583 0.000164973 161.56 0.560092 162.201 1.51953L184.646 36.8467H46.7158C43.7658 36.8467 38.8447 37 38.8447 37L38.5557 0H159.549Z" fill="#E2EDEE"/>
</svg>
