<svg width="689" height="245" viewBox="0 0 689 245" fill="none" xmlns="http://www.w3.org/2000/svg">
<path d="M682.662 39.5C684.523 39.5 686.034 41.2819 686.04 43.4844L686.5 214.525C686.503 215.806 685.988 217.01 685.114 217.766L657.38 241.731C656.802 242.231 656.104 242.5 655.389 242.5H53.8203C53.1043 242.5 52.4064 242.231 51.8281 241.731L3.88574 200.305C3.01485 199.552 2.5 198.352 2.5 197.076V43.4971C2.5 41.2896 4.01242 39.5 5.87793 39.5H682.662ZM162.049 2.5C163.083 2.50016 164.06 3.06009 164.701 4.01953L187.146 39.3467H49.2158C46.2658 39.3467 41.3447 39.5 41.3447 39.5L41.0557 2.5H162.049Z" fill="#E2EDEE"/>
<path d="M686.04 43.4844L688.54 43.4777V43.4777L686.04 43.4844ZM686.5 214.525L684 214.532V214.532L686.5 214.525ZM685.114 217.766L686.749 219.657V219.657L685.114 217.766ZM657.38 241.731L659.014 243.623L659.014 243.623L657.38 241.731ZM655.389 242.5V245H655.389L655.389 242.5ZM51.8281 241.731L50.1936 243.623L50.1937 243.623L51.8281 241.731ZM3.88574 200.305L5.52029 198.413H5.52029L3.88574 200.305ZM162.049 2.5L162.049 0H162.049V2.5ZM164.701 4.01953L166.811 2.6789L166.796 2.65441L166.78 2.6303L164.701 4.01953ZM187.146 39.3467V41.8467H191.696L189.256 38.006L187.146 39.3467ZM49.2158 39.3467V36.8467H49.2158L49.2158 39.3467ZM41.3447 39.5L38.8448 39.5195L38.8648 42.0785L41.4226 41.9988L41.3447 39.5ZM41.0557 2.5V0H38.5361L38.5557 2.51953L41.0557 2.5ZM682.662 39.5V42C682.754 42 682.932 42.0377 683.14 42.2829C683.352 42.5335 683.539 42.9525 683.54 43.4911L686.04 43.4844L688.54 43.4777C688.531 40.3063 686.278 37 682.662 37V39.5ZM686.04 43.4844L683.54 43.4911L684 214.532L686.5 214.525L689 214.519L688.54 43.4777L686.04 43.4844ZM686.5 214.525L684 214.532C684.002 215.173 683.739 215.65 683.48 215.874L685.114 217.766L686.749 219.657C688.238 218.371 689.005 216.439 689 214.519L686.5 214.525ZM685.114 217.766L683.48 215.874L655.745 239.84L657.38 241.731L659.014 243.623L686.749 219.657L685.114 217.766ZM657.38 241.731L655.746 239.839C655.589 239.975 655.462 240 655.388 240L655.389 242.5L655.389 245C656.747 245 658.015 244.486 659.014 243.623L657.38 241.731ZM655.389 242.5V240H53.8203V242.5V245H655.389V242.5ZM53.8203 242.5V240C53.7458 240 53.619 239.975 53.4625 239.84L51.8281 241.731L50.1937 243.623C51.1938 244.487 52.4627 245 53.8203 245V242.5ZM51.8281 241.731L53.4627 239.84L5.52029 198.413L3.88574 200.305L2.2512 202.196L50.1936 243.623L51.8281 241.731ZM3.88574 200.305L5.52029 198.413C5.26295 198.191 5 197.715 5 197.076H2.5H0C0 198.989 0.76674 200.914 2.2512 202.196L3.88574 200.305ZM2.5 197.076H5V43.4971H2.5H0V197.076H2.5ZM2.5 43.4971H5C5 42.9572 5.18593 42.5364 5.39885 42.2844C5.60726 42.0378 5.78595 42 5.87793 42V39.5V37C2.25388 37 0 40.3198 0 43.4971H2.5ZM5.87793 39.5V42H682.662V39.5V37H5.87793V39.5ZM162.049 2.5L162.048 5C162.14 5.00001 162.382 5.04833 162.623 5.40876L164.701 4.01953L166.78 2.6303C165.738 1.07186 164.026 0.000315428 162.049 0L162.049 2.5ZM164.701 4.01953L162.591 5.36016L185.035 40.6873L187.146 39.3467L189.256 38.006L166.811 2.6789L164.701 4.01953ZM187.146 39.3467V36.8467H49.2158V39.3467V41.8467H187.146V39.3467ZM49.2158 39.3467L49.2158 36.8467C47.7088 36.8467 45.7157 36.8857 44.1141 36.9241C43.3102 36.9433 42.5991 36.9626 42.089 36.977C41.8338 36.9843 41.6288 36.9903 41.4873 36.9945C41.4165 36.9966 41.3617 36.9983 41.3244 36.9994C41.3057 37 41.2915 37.0005 41.2818 37.0007C41.277 37.0009 41.2733 37.001 41.2708 37.0011C41.2696 37.0011 41.2686 37.0012 41.268 37.0012C41.2676 37.0012 41.2674 37.0012 41.2672 37.0012C41.2671 37.0012 41.267 37.0012 41.267 37.0012C41.2669 37.0012 41.2669 37.0012 41.3447 39.5C41.4226 41.9988 41.4226 41.9988 41.4226 41.9988C41.4226 41.9988 41.4226 41.9988 41.4227 41.9988C41.4228 41.9988 41.423 41.9988 41.4233 41.9988C41.4238 41.9987 41.4247 41.9987 41.4258 41.9987C41.428 41.9986 41.4315 41.9985 41.436 41.9984C41.4452 41.9981 41.4589 41.9977 41.477 41.9971C41.5133 41.996 41.567 41.9944 41.6366 41.9923C41.7758 41.9881 41.9782 41.9822 42.2305 41.975C42.7353 41.9607 43.4389 41.9417 44.2339 41.9226C45.8304 41.8844 47.7728 41.8467 49.2158 41.8467L49.2158 39.3467ZM41.3447 39.5L43.8447 39.4805L43.5556 2.48047L41.0557 2.5L38.5557 2.51953L38.8448 39.5195L41.3447 39.5ZM41.0557 2.5V5H162.049V2.5V0H41.0557V2.5Z" fill="#0088CC"/>
</svg>
